<svg width="48" height="38" viewBox="0 0 48 38" fill="none" xmlns="http://www.w3.org/2000/svg">
<path d="M28.9366 4.07592C27.9006 3.7793 26.8219 4.37859 26.5233 5.40767L18.7227 32.5269C18.4241 33.556 19.0274 34.6275 20.0634 34.9241C21.0994 35.2207 22.1781 34.6214 22.4767 33.5923L30.2773 6.47307C30.5759 5.44399 29.9726 4.37253 28.9366 4.07592ZM33.8485 11.3461C33.0868 12.1027 33.0868 13.3316 33.8485 14.0883L39.2907 19.5L33.8425 24.9117C33.0807 25.6684 33.0807 26.8973 33.8425 27.6539C34.6042 28.4106 35.8414 28.4106 36.6031 27.6539L43.4287 20.8741C44.1904 20.1175 44.1904 18.8886 43.4287 18.1319L36.6031 11.3521C35.8414 10.5954 34.6042 10.5954 33.8425 11.3521L33.8485 11.3461ZM15.1576 11.3461C14.3958 10.5894 13.1586 10.5894 12.3969 11.3461L5.57133 18.1259C4.80956 18.8826 4.80956 20.1114 5.57133 20.8681L12.3969 27.6479C13.1586 28.4046 14.3958 28.4046 15.1576 27.6479C15.9193 26.8912 15.9193 25.6624 15.1576 24.9057L9.70931 19.5L15.1576 14.0883C15.9193 13.3316 15.9193 12.1027 15.1576 11.3461Z" fill="#BD1447"/>
</svg>
