<svg width="193" height="153" viewBox="0 0 193 153" fill="none" xmlns="http://www.w3.org/2000/svg">
<path d="M116.349 16.4109C112.184 15.2166 107.846 17.6295 106.646 21.7729L75.2808 130.964C74.0801 135.107 76.506 139.421 80.6716 140.615C84.8373 141.81 89.1745 139.397 90.3752 135.253L121.74 26.0626C122.941 21.9192 120.515 17.6052 116.349 16.4109ZM136.099 45.6828C133.036 48.7294 133.036 53.6771 136.099 56.7237L157.981 78.5131L136.075 100.303C133.012 103.349 133.012 108.297 136.075 111.343C139.138 114.39 144.112 114.39 147.175 111.343L174.619 84.0458C177.682 80.9992 177.682 76.0515 174.619 73.0048L147.175 45.7072C144.112 42.6605 139.138 42.6605 136.075 45.7072L136.099 45.6828ZM60.946 45.6828C57.883 42.6362 52.9087 42.6362 49.8458 45.6828L22.4014 72.9805C19.3384 76.0271 19.3384 80.9748 22.4014 84.0214L49.8458 111.319C52.9087 114.366 57.883 114.366 60.946 111.319C64.009 108.272 64.009 103.325 60.946 100.278L39.0396 78.5131L60.946 56.7237C64.009 53.6771 64.009 48.7294 60.946 45.6828Z" fill="#C44BE2"/>
</svg>
