<svg width="39" height="31" viewBox="0 0 39 31" fill="none" xmlns="http://www.w3.org/2000/svg">
<path d="M23.9366 0.0759174C22.9006 -0.2207 21.8219 0.378588 21.5233 1.40767L13.7227 28.5269C13.4241 29.556 14.0274 30.6275 15.0634 30.9241C16.0994 31.2207 17.1781 30.6214 17.4767 29.5923L25.2773 2.47307C25.5759 1.44399 24.9726 0.372534 23.9366 0.0759174ZM28.8485 7.34606C28.0868 8.10274 28.0868 9.33158 28.8485 10.0883L34.2907 15.5L28.8425 20.9117C28.0807 21.6684 28.0807 22.8973 28.8425 23.6539C29.6042 24.4106 30.8414 24.4106 31.6031 23.6539L38.4287 16.8741C39.1904 16.1175 39.1904 14.8886 38.4287 14.1319L31.6031 7.35211C30.8414 6.59544 29.6042 6.59544 28.8425 7.35211L28.8485 7.34606ZM10.1576 7.34606C9.39577 6.58938 8.15865 6.58938 7.39687 7.34606L0.571334 14.1259C-0.190445 14.8826 -0.190445 16.1114 0.571334 16.8681L7.39687 23.6479C8.15865 24.4046 9.39577 24.4046 10.1576 23.6479C10.9193 22.8912 10.9193 21.6624 10.1576 20.9057L4.70931 15.5L10.1576 10.0883C10.9193 9.33158 10.9193 8.10274 10.1576 7.34606Z" fill="#1C59DD"/>
</svg>
